<svg width="163" height="45" viewBox="0 0 163 45" fill="none" xmlns="http://www.w3.org/2000/svg">
<path fill-rule="evenodd" clip-rule="evenodd" d="M3.2347 13.1791H52.6126L55.8473 22.5492L52.6126 31.9192H3.2347L0 22.5492L3.2347 13.1791Z" fill="url(#paint0_linear_49_31)"/>
<path fill-rule="evenodd" clip-rule="evenodd" d="M3.85825 14.124L0.974304 22.5492L3.85825 31.0138H51.989L54.873 22.5492L51.989 14.124H3.85825Z" fill="#9B9B9B"/>
<path fill-rule="evenodd" clip-rule="evenodd" d="M4.52078 15.0295L1.90964 22.5492L4.52078 30.1083H51.3265L53.9376 22.5492L51.3265 15.0295H4.52078Z" fill="url(#paint1_radial_49_31)"/>
<path fill-rule="evenodd" clip-rule="evenodd" d="M3.85827 14.124H51.989L52.6126 13.1791H3.23471L3.85827 14.124Z" fill="url(#paint2_linear_49_31)"/>
<path fill-rule="evenodd" clip-rule="evenodd" d="M51.989 14.124H3.85825L4.52077 15.0295H51.3265L51.989 14.124Z" fill="url(#paint3_linear_49_31)"/>
<path fill-rule="evenodd" clip-rule="evenodd" d="M51.3265 30.1083H4.52077L3.85825 31.0138H51.989L51.3265 30.1083Z" fill="url(#paint4_linear_49_31)"/>
<path fill-rule="evenodd" clip-rule="evenodd" d="M51.989 31.0138H3.85827L3.23471 31.9193H52.6126L51.989 31.0138Z" fill="url(#paint5_linear_49_31)"/>
<path fill-rule="evenodd" clip-rule="evenodd" d="M3.11778 28.7697L0.974307 22.5492H0L2.14348 28.7697L3.2347 31.9193L3.85826 31.0138L3.11778 28.7697Z" fill="url(#paint6_linear_49_31)"/>
<path fill-rule="evenodd" clip-rule="evenodd" d="M0.974304 22.5492L3.11778 28.7697L3.85825 31.0138L4.52078 30.1083L4.05311 28.7697L1.90964 22.5492H0.974304Z" fill="url(#paint7_linear_49_31)"/>
<path fill-rule="evenodd" clip-rule="evenodd" d="M0.974307 22.5492L3.11778 16.3287L3.85826 14.124L3.2347 13.1791L2.14348 16.3287L0 22.5492H0.974307Z" fill="url(#paint8_linear_49_31)"/>
<path fill-rule="evenodd" clip-rule="evenodd" d="M3.85825 14.124L3.11778 16.3287L0.974304 22.5492H1.90964L4.05311 16.3287L4.52078 15.0295L3.85825 14.124Z" fill="url(#paint9_linear_49_31)"/>
<path fill-rule="evenodd" clip-rule="evenodd" d="M52.7685 28.7697L54.873 22.5492H55.8473L53.7038 28.7697L52.6126 31.9193L51.989 31.0138L52.7685 28.7697Z" fill="#999999"/>
<path fill-rule="evenodd" clip-rule="evenodd" d="M54.873 22.5492L52.7685 28.7697L51.989 31.0138L51.3265 30.1083L51.7942 28.7697L53.9377 22.5492H54.873Z" fill="#7B7B7B"/>
<path fill-rule="evenodd" clip-rule="evenodd" d="M54.873 22.5492L52.7685 16.3287L51.989 14.124L52.6126 13.1791L53.7038 16.3287L55.8473 22.5492H54.873Z" fill="#B4B4B4"/>
<path fill-rule="evenodd" clip-rule="evenodd" d="M51.989 14.124L52.7685 16.3287L54.873 22.5492H53.9377L51.7942 16.3287L51.3265 15.0295L51.989 14.124Z" fill="url(#paint10_linear_49_31)"/>
<path fill-rule="evenodd" clip-rule="evenodd" d="M27.9431 30.6989C35.7376 30.6989 43.1813 30.6989 49.7676 30.9744H6.07968C12.666 30.6989 20.0707 30.6989 27.9431 30.6989Z" fill="white"/>
<path fill-rule="evenodd" clip-rule="evenodd" d="M98.9386 13.3287H159.109L163 22.8287L159.109 32.3287H98.9386L95 22.8287L98.9386 13.3287Z" fill="url(#paint11_linear_49_31)"/>
<path fill-rule="evenodd" clip-rule="evenodd" d="M99.5289 14.3287L96 22.8089L99.5289 31.3287H158.423L162 22.8089L158.423 14.3287H99.5289Z" fill="#9B9B9B"/>
<path fill-rule="evenodd" clip-rule="evenodd" d="M101.162 15.3287L98 22.8092L101.162 30.3287H157.838L161 22.8092L157.838 15.3287H101.162Z" fill="url(#paint12_radial_49_31)"/>
<path fill-rule="evenodd" clip-rule="evenodd" d="M99.7571 14.3287H158.196L159 13.3287H99L99.7571 14.3287Z" fill="url(#paint13_linear_49_31)"/>
<path fill-rule="evenodd" clip-rule="evenodd" d="M158 14.3287H100L100.798 15.3287H157.202L158 14.3287Z" fill="url(#paint14_linear_49_31)"/>
<path fill-rule="evenodd" clip-rule="evenodd" d="M157.202 30.3287H100.798L100 31.3287H158L157.202 30.3287Z" fill="url(#paint15_linear_49_31)"/>
<path fill-rule="evenodd" clip-rule="evenodd" d="M158.196 31.3287H99.7571L99 32.3287H159L158.196 31.3287Z" fill="url(#paint16_linear_49_31)"/>
<path fill-rule="evenodd" clip-rule="evenodd" d="M82.2705 28.7697L80.127 22.5492H79.1527L81.2962 28.7697L82.3874 31.9193L83.011 31.0138L82.2705 28.7697Z" fill="#999999"/>
<path fill-rule="evenodd" clip-rule="evenodd" d="M80.127 22.5492L82.2705 28.7697L83.011 31.0138L83.6735 30.1083L83.2058 28.7697L81.0623 22.5492H80.127Z" fill="#7B7B7B"/>
<path fill-rule="evenodd" clip-rule="evenodd" d="M80.127 22.5492L82.2705 16.3287L83.011 14.124L82.3874 13.1791L81.2962 16.3287L79.1527 22.5492H80.127Z" fill="#B4B4B4"/>
<path fill-rule="evenodd" clip-rule="evenodd" d="M83.011 14.124L82.2705 16.3287L80.127 22.5492H81.0623L83.2058 16.3287L83.6735 15.0295L83.011 14.124Z" fill="url(#paint17_linear_49_31)"/>
<path fill-rule="evenodd" clip-rule="evenodd" d="M159.01 28.9674L161.788 22.3287H163L160.222 28.9674L158.859 32.3287L158 31.3623L159.01 28.9674Z" fill="url(#paint18_linear_49_31)"/>
<path fill-rule="evenodd" clip-rule="evenodd" d="M162 22.3287L159.609 28.9427L158.739 31.3287L158 30.3659L158.522 28.9427L160.913 22.3287H162Z" fill="url(#paint19_linear_49_31)"/>
<path fill-rule="evenodd" clip-rule="evenodd" d="M161.788 22.3287L159.01 16.3539L158 14.2363L158.859 13.3287L160.222 16.3539L163 22.3287H161.788Z" fill="url(#paint20_linear_49_31)"/>
<path fill-rule="evenodd" clip-rule="evenodd" d="M158.739 14.3287L159.609 16.4222L162 22.3287H160.913L158.522 16.4222L158 15.1885L158.739 14.3287Z" fill="url(#paint21_linear_49_31)"/>
<path fill-rule="evenodd" clip-rule="evenodd" d="M129.524 30.3287C138.979 30.3287 148.01 30.3287 156 31.3287H103C110.99 31.3287 119.973 30.3287 129.524 30.3287Z" fill="white"/>
<path fill-rule="evenodd" clip-rule="evenodd" d="M12.0431 1.32874H150.957L160 22.8092L150.957 44.3287H12.0431L3 22.8092L12.0431 1.32874Z" fill="url(#paint22_linear_49_31)"/>
<path fill-rule="evenodd" clip-rule="evenodd" d="M14.1583 3.32874L6 22.8287L14.1583 42.3287H148.889L157 22.8287L148.889 3.32874H14.1583Z" fill="#9B9B9B"/>
<path fill-rule="evenodd" clip-rule="evenodd" d="M151.162 36.9422L157.262 22.3287H160L153.9 36.9422L150.825 44.3287L149 42.1727L151.162 36.9422Z" fill="url(#paint23_linear_49_31)"/>
<path style="mix-blend-mode:screen" fill-rule="evenodd" clip-rule="evenodd" d="M28.6836 0.856299H106.355C105.693 -0.285433 29.3072 -0.285433 28.6836 0.856299V0.856299Z" fill="url(#paint24_linear_49_31)"/>
<path fill-rule="evenodd" clip-rule="evenodd" d="M13.5304 3.32874L6 22.8287L13.5304 42.3287H149.47L157 22.8287L149.47 3.32874H13.5304Z" fill="url(#paint25_linear_49_31)"/>
<defs>
<linearGradient id="paint0_linear_49_31" x1="27.9431" y1="31.9192" x2="27.9431" y2="13.1791" gradientUnits="userSpaceOnUse">
<stop stop-color="#6287C9"/>
<stop offset="1" stop-color="#3B597D"/>
</linearGradient>
<radialGradient id="paint1_radial_49_31" cx="0" cy="0" r="1" gradientUnits="userSpaceOnUse" gradientTransform="translate(1765.66 134.604) scale(255.458 74.0366)">
<stop stop-color="white"/>
<stop offset="1" stop-color="#7F5CFF"/>
</radialGradient>
<linearGradient id="paint2_linear_49_31" x1="27.9431" y1="14.124" x2="27.9431" y2="13.1791" gradientUnits="userSpaceOnUse">
<stop stop-color="#87B5F5"/>
<stop offset="1" stop-color="#4E76A6"/>
</linearGradient>
<linearGradient id="paint3_linear_49_31" x1="27.9431" y1="15.0295" x2="27.9431" y2="14.124" gradientUnits="userSpaceOnUse">
<stop stop-color="#204270"/>
<stop offset="1" stop-color="#335D94"/>
</linearGradient>
<linearGradient id="paint4_linear_49_31" x1="348.956" y1="39.2358" x2="348.956" y2="39.0275" gradientUnits="userSpaceOnUse">
<stop stop-color="#87B5F5"/>
<stop offset="1" stop-color="#4E76A6"/>
</linearGradient>
<linearGradient id="paint5_linear_49_31" x1="357.274" y1="40.3496" x2="357.274" y2="40.1413" gradientUnits="userSpaceOnUse">
<stop stop-color="#204270"/>
<stop offset="1" stop-color="#335D94"/>
</linearGradient>
<linearGradient id="paint6_linear_49_31" x1="1.92913" y1="119.155" x2="1.92913" y2="96.8539" gradientUnits="userSpaceOnUse">
<stop stop-color="#273F5E"/>
<stop offset="1" stop-color="#4E688C"/>
</linearGradient>
<linearGradient id="paint7_linear_49_31" x1="2.72806" y1="31.0138" x2="2.72806" y2="22.5492" gradientUnits="userSpaceOnUse">
<stop stop-color="#4E688C"/>
<stop offset="1" stop-color="#273F5E"/>
</linearGradient>
<linearGradient id="paint8_linear_49_31" x1="1.94861" y1="22.5492" x2="1.94861" y2="13.1791" gradientUnits="userSpaceOnUse">
<stop stop-color="#4E76A6"/>
<stop offset="1" stop-color="#87B5F5"/>
</linearGradient>
<linearGradient id="paint9_linear_49_31" x1="3.45684" y1="80.9358" x2="3.45684" y2="62.9059" gradientUnits="userSpaceOnUse">
<stop stop-color="#4E688C"/>
<stop offset="1" stop-color="#273F5E"/>
</linearGradient>
<linearGradient id="paint10_linear_49_31" x1="51.3265" y1="18.3366" x2="54.873" y2="18.3366" gradientUnits="userSpaceOnUse">
<stop stop-color="#204954"/>
<stop offset="1" stop-color="#1B3840"/>
</linearGradient>
<linearGradient id="paint11_linear_49_31" x1="1963.64" y1="209.219" x2="1963.64" y2="118.779" gradientUnits="userSpaceOnUse">
<stop stop-color="#6287C9"/>
<stop offset="1" stop-color="#3B597D"/>
</linearGradient>
<radialGradient id="paint12_radial_49_31" cx="0" cy="0" r="1" gradientUnits="userSpaceOnUse" gradientTransform="translate(2233.7 134.279) scale(309.33 73.65)">
<stop stop-color="white"/>
<stop offset="1" stop-color="#7F5CFF"/>
</radialGradient>
<linearGradient id="paint13_linear_49_31" x1="1747.8" y1="19.1187" x2="1747.8" y2="18.8787" gradientUnits="userSpaceOnUse">
<stop stop-color="#87B5F5"/>
<stop offset="1" stop-color="#4E76A6"/>
</linearGradient>
<linearGradient id="paint14_linear_49_31" x1="1693.84" y1="20.3487" x2="1693.84" y2="20.1187" gradientUnits="userSpaceOnUse">
<stop stop-color="#204270"/>
<stop offset="1" stop-color="#335D94"/>
</linearGradient>
<linearGradient id="paint15_linear_49_31" x1="1693.84" y1="40.4087" x2="1693.84" y2="40.1787" gradientUnits="userSpaceOnUse">
<stop stop-color="#87B5F5"/>
<stop offset="1" stop-color="#4E76A6"/>
</linearGradient>
<linearGradient id="paint16_linear_49_31" x1="1747.8" y1="41.6387" x2="1747.8" y2="41.4087" gradientUnits="userSpaceOnUse">
<stop stop-color="#204270"/>
<stop offset="1" stop-color="#335D94"/>
</linearGradient>
<linearGradient id="paint17_linear_49_31" x1="153.043" y1="71.9209" x2="156.27" y2="71.9209" gradientUnits="userSpaceOnUse">
<stop stop-color="#204954"/>
<stop offset="1" stop-color="#1B3840"/>
</linearGradient>
<linearGradient id="paint18_linear_49_31" x1="328.75" y1="125.429" x2="328.75" y2="101.629" gradientUnits="userSpaceOnUse">
<stop stop-color="#273F5E"/>
<stop offset="1" stop-color="#4E688C"/>
</linearGradient>
<linearGradient id="paint19_linear_49_31" x1="160" y1="31.3287" x2="160" y2="22.3287" gradientUnits="userSpaceOnUse">
<stop stop-color="#304D73"/>
<stop offset="1" stop-color="#5B79A3"/>
</linearGradient>
<linearGradient id="paint20_linear_49_31" x1="328.75" y1="84.6987" x2="328.75" y2="63.2787" gradientUnits="userSpaceOnUse">
<stop stop-color="#4E76A6"/>
<stop offset="1" stop-color="#87B5F5"/>
</linearGradient>
<linearGradient id="paint21_linear_49_31" x1="293.76" y1="77.7687" x2="293.76" y2="60.6487" gradientUnits="userSpaceOnUse">
<stop stop-color="#4E688C"/>
<stop offset="1" stop-color="#273F5E"/>
</linearGradient>
<linearGradient id="paint22_linear_49_31" x1="2722.24" y1="579.249" x2="2722.24" y2="105.819" gradientUnits="userSpaceOnUse">
<stop stop-color="#6287C9"/>
<stop offset="1" stop-color="#3B597D"/>
</linearGradient>
<linearGradient id="paint23_linear_49_31" x1="509.25" y1="318.009" x2="509.25" y2="196.789" gradientUnits="userSpaceOnUse">
<stop stop-color="#273F5E"/>
<stop offset="1" stop-color="#4E688C"/>
</linearGradient>
<linearGradient id="paint24_linear_49_31" x1="67.5" y1="0.856299" x2="67.5" y2="-0.00984251" gradientUnits="userSpaceOnUse">
<stop stop-color="#1068FF"/>
<stop offset="1"/>
</linearGradient>
<linearGradient id="paint25_linear_49_31" x1="81.5" y1="42.3287" x2="81.5" y2="3.32874" gradientUnits="userSpaceOnUse">
<stop stop-color="#004CB1"/>
<stop offset="1" stop-color="#2A1E54"/>
</linearGradient>
</defs>
</svg>
