<svg width="942" height="128" viewBox="0 0 942 128" fill="none" xmlns="http://www.w3.org/2000/svg">
<path fill-rule="evenodd" clip-rule="evenodd" d="M18.1625 0.261758H306.517L324.68 6.15133H338.761L320.394 0.261758H334.475L352.842 6.15133H366.719L348.556 0.261758H362.433L380.8 6.15133H394.881L376.514 0.261758H391.003L409.166 6.15133H423.247L405.085 0.261758H418.961L437.328 6.15133H451.205L431.818 0.261758H445.899L464.062 6.15133H478.143L459.776 0.261758H473.857L492.02 6.15133H506.101L490.795 1.24335H504.876L520.182 6.15133H534.263L523.039 2.55215H537.12L548.14 6.15133H942V122.569L930.572 126.168H693.643L680.991 122.11H635.891L617.524 128H33.8761L0 117.137V5.88957L18.1625 0V0.261758ZM5.91811 8.04908V116.286L18.1625 120.213H936.49V8.04908H5.91811ZM36.325 125.84H356.515L368.76 121.914H23.6724L35.9168 125.84H36.325ZM362.841 125.84H438.348L450.593 121.914H375.086L362.841 125.84ZM195.298 6.15133H316.109L303.864 2.22495H207.338L195.298 6.15133ZM935.47 122.11H690.582L697.113 124.27H928.939L935.47 122.11ZM15.1014 10.863H927.715V117.268H22.448L15.1014 115.108V10.9939V10.863ZM18.1625 11.8446V114.65L23.6724 116.286H924.654V11.9755L18.1625 11.8446Z" fill="url(#paint0_linear_38_31)"/>
<defs>
<linearGradient id="paint0_linear_38_31" x1="471" y1="128" x2="471" y2="0" gradientUnits="userSpaceOnUse">
<stop stop-color="#0448A8"/>
<stop offset="1" stop-color="#2A1E54"/>
</linearGradient>
</defs>
</svg>
